HIERARCHY
ROOT SpineBase
{
  OFFSET 0.000000 0.000000 0.000000
  CHANNELS 6 Xposition Yposition Zposition Zrotation Xrotation Yrotation
  JOINT SpineMid
  {
    OFFSET 0.000000 33.320093 0.000000
    CHANNELS 3 Zrotation Xrotation Yrotation
    JOINT SpineShoulder
    {
      OFFSET 0.384709 24.630738 -0.741911
      CHANNELS 3 Zrotation Xrotation Yrotation
      JOINT Neck
      {
        OFFSET 0.245629 8.123920 -0.568838
        CHANNELS 3 Zrotation Xrotation Yrotation
        JOINT Head
        {
          OFFSET 2.288082 11.067544 5.839093
          CHANNELS 3 Zrotation Xrotation Yrotation
          End Site
          {
            OFFSET 0 0 0
          }
        }
      }
      JOINT ShoulderLeft
      {
        OFFSET -1.846046 -5.020255 -15.725795
        CHANNELS 3 Zrotation Xrotation Yrotation
        JOINT ElbowLeft
        {
          OFFSET 3.070128 -25.451066 -4.840829
          CHANNELS 3 Zrotation Xrotation Yrotation
          JOINT WristLeft
          {
            OFFSET 5.183008 -19.051710 3.396938
            CHANNELS 3 Zrotation Xrotation Yrotation
            JOINT HandLeft
            {
              OFFSET -0.005470 -6.022002 3.813318
              CHANNELS 3 Zrotation Xrotation Yrotation
              JOINT HandTipLeft
              {
                OFFSET 4.447566 -7.407071 2.166402
                CHANNELS 3 Zrotation Xrotation Yrotation
                End Site
                {
                  OFFSET 0 0 0
                }
              }
              JOINT ThumbLeft
              {
                OFFSET 3.232157 4.697003 4.173898
                CHANNELS 3 Zrotation Xrotation Yrotation
                End Site
                {
                  OFFSET 0 0 0
                }
              }
            }
          }
        }
      }
      JOINT ShoulderRight
      {
        OFFSET 8.611277 -9.466382 9.391835
        CHANNELS 3 Zrotation Xrotation Yrotation
        JOINT ElbowRight
        {
          OFFSET 4.165958 -24.629351 -12.947239
          CHANNELS 3 Zrotation Xrotation Yrotation
          JOINT WristRight
          {
            OFFSET -2.456864 -17.045604 19.629900
            CHANNELS 3 Zrotation Xrotation Yrotation
            JOINT HandRight
            {
              OFFSET -0.498856 -8.280553 8.960912
              CHANNELS 3 Zrotation Xrotation Yrotation
              JOINT HandTipRight
              {
                OFFSET 0.294320 -3.604046 0.443457
                CHANNELS 3 Zrotation Xrotation Yrotation
                End Site
                {
                  OFFSET 0 0 0
                }
              }
              JOINT ThumbRight
              {
                OFFSET 0.218332 6.257789 -1.526667
                CHANNELS 3 Zrotation Xrotation Yrotation
                End Site
                {
                  OFFSET 0 0 0
                }
              }
            }
          }
        }
      }
    }
  }
  JOINT HipLeft
  {
    OFFSET -1.839266 2.432876 -8.835987
    CHANNELS 3 Zrotation Xrotation Yrotation
    JOINT KneeLeft
    {
      OFFSET -3.120544 -32.414567 -1.384170
      CHANNELS 3 Zrotation Xrotation Yrotation
      JOINT AnkleLeft
      {
        OFFSET -8.219836 -36.380097 4.204558
        CHANNELS 3 Zrotation Xrotation Yrotation
        JOINT FootLeft
        {
          OFFSET 10.495816 -3.724495 -6.839158
          CHANNELS 3 Zrotation Xrotation Yrotation
          End Site
          {
            OFFSET 0 0 0
          }
        }
      }
    }
  }
  JOINT HipRight
  {
    OFFSET 4.143295 -0.786952 1.867702
    CHANNELS 3 Zrotation Xrotation Yrotation
    JOINT KneeRight
    {
      OFFSET -1.145897 -26.704630 15.824165
      CHANNELS 3 Zrotation Xrotation Yrotation
      JOINT AnkleRight
      {
        OFFSET -14.601487 -38.446555 2.835762
        CHANNELS 3 Zrotation Xrotation Yrotation
        JOINT FootRight
        {
          OFFSET 2.555465 -7.010505 0.290262
          CHANNELS 3 Zrotation Xrotation Yrotation
          End Site
          {
            OFFSET 0 0 0
          }
        }
      }
    }
  }
}
MOTION
Frames: 5
Frame Time: 0.033333
-96.636592 78.169545 314.882254 0.586941 -0.575064 -60.483271 -0.789591 -0.227454 60.484649 0.757188 -0.419487 0.068471 0.749384 -1.281954 -0.500285 0.000000 0.000000 0.000000 -1.435918 1.760670 0.240598 -1.302885 -0.305690 -0.385584 3.324410 0.419630 0.955581 -2.358459 1.686667 0.702760 0.000000 0.000000 0.000000 0.000000 0.000000 0.000000 -0.741470 -3.533087 -0.754291 7.352856 28.176903 4.882153 -4.108500 47.912173 -56.562689 57.501052 -43.668324 64.667325 0.000000 0.000000 0.000000 0.000000 0.000000 0.000000 -2.321649 -0.069198 60.371289 0.619933 -1.409960 0.117021 -34.656565 -18.101940 -46.795598 0.000000 0.000000 0.000000 -4.945982 0.352934 59.385498 1.620039 -3.871916 1.158468 -4.460342 4.155964 1.516463 0.000000 0.000000 0.000000
-96.628986 78.241363 314.832460 0.552162 -0.554401 -60.419542 -0.754707 -0.206528 60.420853 0.720451 -0.580526 0.071637 0.843147 -1.266694 -0.504036 0.000000 0.000000 0.000000 -1.544430 1.894228 0.268416 -1.081249 -0.420536 -0.433706 3.491542 1.049583 1.127160 -3.094744 0.258313 -0.214680 0.000000 0.000000 0.000000 0.000000 0.000000 0.000000 -0.764317 -7.395434 -1.450522 7.908823 46.380524 1.817315 -10.310049 28.075866 -51.644184 49.467808 -36.852414 58.073259 0.000000 0.000000 0.000000 0.000000 0.000000 0.000000 -2.295010 -0.100392 60.311363 0.670773 -1.390659 0.113505 -30.883058 -17.730246 -41.565913 0.000000 0.000000 0.000000 -4.941750 0.318066 59.280268 1.690836 -3.866756 1.201744 -10.944629 -0.399059 -0.661216 0.000000 0.000000 0.000000
-96.667245 78.288084 314.732967 0.443028 -0.493632 -60.213178 -0.648494 -0.139278 60.214299 0.629748 -0.673469 0.068143 1.013112 -1.248677 -0.528422 0.000000 0.000000 0.000000 -1.640117 2.008344 0.315865 -0.734508 -0.424094 -0.433205 3.070209 0.669066 0.928218 -3.156796 -0.741365 -0.964884 0.000000 0.000000 0.000000 0.000000 0.000000 0.000000 -0.800063 -11.656973 -2.210285 11.417332 65.360407 -3.025686 -11.184523 8.981819 -40.634238 34.488361 -34.252014 44.617654 0.000000 0.000000 0.000000 0.000000 0.000000 0.000000 -2.093125 -0.072925 60.116031 0.662333 -1.285590 0.103023 -17.931532 -13.872633 -24.576886 0.000000 0.000000 0.000000 -4.593996 0.278756 59.096015 1.670222 -3.599399 1.175572 -5.243775 3.175792 1.105830 0.000000 0.000000 0.000000
-96.745404 78.321432 314.578546 0.288976 -0.404019 -59.930123 -0.494436 -0.047651 59.930936 0.504959 -0.684261 0.059045 1.068396 -1.267420 -0.477552 0.000000 0.000000 0.000000 -1.705477 2.045695 0.367895 -0.355197 -0.505311 -0.448732 2.963417 0.251351 0.961839 -3.433855 -0.423083 -1.155787 0.000000 0.000000 0.000000 0.000000 0.000000 0.000000 -0.863691 -15.806381 -2.950122 30.896872 81.931555 -23.177177 -13.355635 -8.203917 -36.688192 16.543366 -23.165843 31.955090 0.000000 0.000000 0.000000 0.000000 0.000000 0.000000 -1.748264 -0.013101 59.849764 0.599952 -1.101536 0.086275 -14.103887 -11.852173 -19.263592 0.000000 0.000000 0.000000 -3.975925 0.219163 58.887578 1.572282 -3.118057 1.091366 -6.082409 3.812800 1.369267 0.000000 0.000000 0.000000
-96.874657 78.371333 314.381022 0.041994 -0.278587 -60.238501 -0.262687 0.101832 60.238836 -0.000000 0.000000 0.000000 1.525676 -2.112691 -0.344314 0.000000 0.000000 0.000000 -1.434030 1.365003 0.454173 -0.030732 -0.685117 -0.521765 2.852351 0.594095 0.973160 -2.172091 -2.022990 -1.616959 0.000000 0.000000 0.000000 0.000000 0.000000 0.000000 -0.558857 -19.925029 -3.537550 151.101387 82.369842 -142.762479 -18.626531 -22.076621 -42.737561 1.316913 -2.296477 30.267517 0.000000 0.000000 0.000000 0.000000 0.000000 0.000000 -1.143319 0.112420 60.184689 0.428706 -0.769315 0.058672 -12.882137 -11.054800 -17.218315 0.000000 0.000000 0.000000 -3.567172 0.380097 59.280197 1.450572 -2.982379 1.010304 -6.924950 4.300474 1.578774 0.000000 0.000000 0.000000
